<svg id="SvgjsSvg1056" width="288" height="288" xmlns="http://www.w3.org/2000/svg" version="1.1" xmlns:xlink="http://www.w3.org/1999/xlink" xmlns:svgjs="http://svgjs.com/svgjs"><defs id="SvgjsDefs1057"></defs><g id="SvgjsG1058"><svg xmlns="http://www.w3.org/2000/svg" viewBox="0 0 64 64" width="288" height="288"><circle cx="31.5" cy="32.5" r="27.491" fill="#ffffff" stroke="#f0edcd" stroke-width="2" class="colorFFF svgShape colorStroke000 svgStroke"></circle><circle cx="32.26" cy="32.5" r="25.781" fill="#161515" class="colorDD765E svgShape"></circle><path fill="none" stroke="#f0edcd" stroke-linecap="round" d="M55.774 28.04c.334 1.349.584 2.792.726 4.333m-8.058-17.176a26.327 26.327 0 0 1 7.022 10.782m-46.714.954a28.987 28.987 0 0 0-.725 4.334m8.42-17.4a26.334 26.334 0 0 0-7.022 10.782" class="colorStrokeF8D8D2 svgStroke"></path><path fill="none" stroke="#f0edcd" stroke-width="2" d="M43.761 42.437c0 1.002-.82 1.822-1.822 1.822H21.063a1.828 1.828 0 0 1-1.823-1.822V25.052c0-1.002.82-1.822 1.823-1.822h20.875c1.002 0 1.822.82 1.822 1.822v17.385z" class="colorStroke000 svgStroke"></path><path fill="none" stroke="#f0edcd" stroke-linecap="round" stroke-linejoin="round" stroke-width="2" d="m27.302 34.786 3.242 3.242 5.735-5.735" class="colorStroke000 svgStroke"></path><path fill="none" stroke="#f0edcd" stroke-linecap="round" stroke-width="2" d="M24.227 26.056v-5.57M38.856 26.056v-5.57M31.542 26.056v-5.57" class="colorStroke000 svgStroke"></path></svg></g></svg>