<svg width="22" height="8" viewBox="0 0 22 8" fill="none" xmlns="http://www.w3.org/2000/svg">
<path d="M4.0463 3.56361C3.2956 3.92396 2.55324 4.73225 2.16041 5.20569C2.53394 4.08972 3.13127 3.04859 3.99987 2.31348C5.27122 2.23919 7.07782 0.731823 6.17739 0.0998274C5.3813 -0.459545 4.24715 1.48578 3.90389 2.12055C3.65287 2.31873 3.41988 2.54146 3.20795 2.78581C3.34533 2.31057 3.41686 1.81661 3.42028 1.31947C3.42028 0.526148 2.71392 0.216248 2.32474 1.15704C2.00495 1.93317 2.27257 3.49265 2.3743 4.02098C2.15343 4.44637 1.96822 4.89159 1.82079 5.35149C1.73732 3.84302 1.10817 2.36448 0.533794 2.53856C-0.318119 2.79745 0.047061 4.40516 0.289123 5.42135C0.483191 6.23463 1.1353 7.00023 1.38831 7.27409C1.36275 7.48808 1.34553 7.70263 1.33614 7.91551C1.33145 8.06076 1.63559 7.99867 1.63977 7.88003C1.64237 7.8063 1.64655 7.73256 1.65177 7.65828C2.77444 7.93547 5.11628 7.28407 5.4006 6.7186C5.6964 6.1304 5.36147 5.91419 4.12091 6.0866C3.05875 6.23462 2.03416 7.12829 1.66585 7.47921C1.73046 6.84328 1.85383 6.21565 2.03416 5.6054C3.30916 5.79999 6.40746 4.49663 6.37094 3.7205C6.33598 2.90888 5.14185 3.03806 4.0463 3.56361Z" fill="#698950"/>
<path d="M0.459693 3.10177C0.46695 3.08089 0.473714 3.05753 0.501343 3.06426C0.523366 3.06948 0.525496 3.09052 0.526488 3.11053L0.530236 3.17603C0.512014 3.37585 0.521495 3.57592 0.535909 3.77475C0.594024 4.57632 0.816436 5.32472 1.19082 6.02314C1.21748 6.07308 1.25482 6.11831 1.26752 6.17785C1.2307 6.18538 1.22463 6.15459 1.21334 6.13697C0.942577 5.70643 0.739631 5.23203 0.612448 4.73235C0.476597 4.20159 0.424973 3.65053 0.459693 3.10177Z" fill="#BBBEA0"/>
<path d="M5.83779 3.76146C5.86217 3.76706 5.88921 3.77163 5.88633 3.80726C5.88419 3.83564 5.8612 3.8418 5.83916 3.84636L5.76711 3.86192C5.54236 3.87233 5.32194 3.91739 5.10371 3.9684C4.22393 4.17409 3.43042 4.5762 2.71761 5.15987C2.66662 5.20147 2.62263 5.25563 2.55867 5.28137C2.5442 5.23663 2.57736 5.22393 2.59504 5.2069C3.02781 4.79716 3.52051 4.46486 4.05385 4.22301C4.62024 3.96517 5.22313 3.80919 5.83779 3.76146Z" fill="#BBBEA0"/>
<path d="M5.88208 0.645752C5.88504 0.633572 5.88898 0.620409 5.87411 0.614098C5.86229 0.608999 5.85492 0.618045 5.84839 0.627005L5.82677 0.656152C5.77461 0.755213 5.7095 0.844924 5.64248 0.932376C5.37228 1.28493 5.04188 1.55665 4.65604 1.75324C4.6285 1.76734 4.59743 1.77559 4.57346 1.79892C4.58828 1.815 4.60045 1.80276 4.61104 1.79844C4.86746 1.6909 5.10568 1.53983 5.31638 1.35113C5.54053 1.15094 5.73171 0.912561 5.88208 0.645752Z" fill="#BBBEA0"/>
<path d="M2.87735 1.05452C2.88727 1.04358 2.89754 1.03095 2.9129 1.04323C2.92518 1.05293 2.92102 1.06671 2.91643 1.07952L2.9017 1.12158C2.8384 1.24124 2.7922 1.36915 2.74937 1.49772C2.57671 2.01606 2.51962 2.54917 2.56964 3.09543C2.57315 3.13446 2.5845 3.17366 2.57686 3.21462C2.5521 3.20857 2.55636 3.18753 2.55395 3.17321C2.49836 2.82479 2.49618 2.46875 2.5475 2.11904C2.60153 1.74736 2.71301 1.3876 2.87735 1.05452Z" fill="#BBBEA0"/>
<path d="M4.67693 6.54992C4.693 6.55487 4.71091 6.55925 4.70742 6.58296C4.70476 6.60186 4.6891 6.60485 4.67415 6.60682L4.62524 6.61369C4.47435 6.60963 4.32485 6.62898 4.17655 6.65242C3.5787 6.74693 3.03003 6.97715 2.52747 7.33285C2.49153 7.3582 2.45973 7.39229 2.41579 7.40638C2.40805 7.37572 2.43081 7.36885 2.44338 7.35832C2.75091 7.10529 3.09519 6.90704 3.46272 6.77133C3.85308 6.62653 4.26342 6.55171 4.67693 6.54992Z" fill="#BBBEA0"/>
<path d="M6.52407 6.4L7.04568 3.8H7.68765L7.27037 5.864H8.21728L8.11296 6.4H6.52407Z" fill="#698950"/>
<path d="M9.38945 6.448C9.12196 6.448 8.90797 6.37067 8.74748 6.216C8.58698 6.06133 8.50674 5.85067 8.50674 5.584C8.50674 5.4 8.54017 5.23333 8.60704 5.084C8.67392 4.932 8.76219 4.80133 8.87186 4.692C8.98153 4.58267 9.10324 4.49867 9.23698 4.44C9.37073 4.38133 9.50447 4.352 9.63822 4.352C9.80139 4.352 9.93112 4.38667 10.0274 4.456C10.1264 4.52533 10.1973 4.61733 10.2401 4.732C10.2829 4.84667 10.3043 4.97333 10.3043 5.112C10.3043 5.17867 10.2976 5.24533 10.2842 5.312C10.2708 5.37867 10.2561 5.43733 10.2401 5.488C10.224 5.53867 10.2106 5.57333 10.1999 5.592H8.98822L9.03636 5.176H9.76661C9.77196 5.16267 9.77597 5.148 9.77865 5.132C9.78132 5.116 9.78266 5.09867 9.78266 5.08C9.78266 5.03467 9.77597 4.99467 9.7626 4.96C9.74922 4.92267 9.72515 4.89333 9.69038 4.872C9.65828 4.85067 9.61414 4.84 9.55797 4.84C9.51517 4.84 9.46702 4.85067 9.41353 4.872C9.3627 4.89333 9.31322 4.93067 9.26507 4.984C9.21692 5.03467 9.1768 5.10533 9.1447 5.196C9.11527 5.284 9.10056 5.39733 9.10056 5.536C9.10056 5.64533 9.11929 5.73067 9.15673 5.792C9.19686 5.85333 9.24902 5.89733 9.31322 5.924C9.37741 5.948 9.4483 5.96 9.52587 5.96C9.58204 5.96 9.64357 5.94933 9.71044 5.928C9.77999 5.90667 9.83616 5.88 9.87896 5.848L10.0876 6.224C10.0047 6.29067 9.90303 6.34533 9.78266 6.388C9.66229 6.428 9.53122 6.448 9.38945 6.448Z" fill="#698950"/>
<path d="M11.0905 6.448C10.914 6.448 10.7762 6.384 10.6772 6.256C10.5783 6.128 10.5288 5.94667 10.5288 5.712C10.5288 5.52267 10.5582 5.34533 10.617 5.18C10.6759 5.01467 10.7548 4.87067 10.8538 4.748C10.9554 4.62267 11.0691 4.52533 11.1948 4.456C11.3232 4.38667 11.457 4.352 11.5961 4.352C11.6816 4.352 11.7632 4.37467 11.8408 4.42C11.9211 4.46267 11.9786 4.52267 12.0133 4.6H12.0214L12.1096 4.4H12.6232L12.222 6.4H11.7004V6.152H11.6923C11.6041 6.24267 11.5051 6.31467 11.3954 6.368C11.2884 6.42133 11.1868 6.448 11.0905 6.448ZM11.3794 5.928C11.4329 5.928 11.4917 5.91067 11.5559 5.876C11.6228 5.84133 11.6816 5.77067 11.7325 5.664L11.8609 5.024C11.8368 4.97067 11.8034 4.932 11.7606 4.908C11.7204 4.884 11.6816 4.872 11.6442 4.872C11.5854 4.872 11.5292 4.89067 11.4757 4.928C11.4222 4.96533 11.374 5.01733 11.3312 5.084C11.2884 5.15067 11.255 5.23067 11.2309 5.324C11.2069 5.41733 11.1948 5.52 11.1948 5.632C11.1948 5.736 11.2109 5.812 11.243 5.86C11.2777 5.90533 11.3232 5.928 11.3794 5.928Z" fill="#698950"/>
<path d="M12.7902 6.4L13.0951 4.896H12.8223L12.9186 4.424L13.1995 4.4L13.2075 4.344C13.2342 4.20533 13.2797 4.07733 13.3439 3.96C13.4108 3.84267 13.5004 3.748 13.6127 3.676C13.7251 3.604 13.8655 3.568 14.034 3.568C14.1143 3.568 14.1932 3.57733 14.2708 3.596C14.351 3.61467 14.4246 3.64267 14.4914 3.68L14.2908 4.12C14.2721 4.10667 14.2427 4.096 14.2025 4.088C14.1651 4.07733 14.1303 4.072 14.0982 4.072C14.034 4.072 13.9819 4.08667 13.9417 4.116C13.9016 4.14267 13.8709 4.21067 13.8495 4.32L13.8334 4.4H14.1624L14.0661 4.896H13.7291L13.4322 6.4H12.7902Z" fill="#698950"/>
<path d="M14.1373 6.4L14.6589 3.8H15.3009L14.8836 5.864H15.8305L15.7262 6.4H14.1373Z" fill="#698950"/>
<path d="M17.0027 6.448C16.7352 6.448 16.5212 6.37067 16.3607 6.216C16.2002 6.06133 16.12 5.85067 16.12 5.584C16.12 5.4 16.1534 5.23333 16.2203 5.084C16.2872 4.932 16.3755 4.80133 16.4851 4.692C16.5948 4.58267 16.7165 4.49867 16.8503 4.44C16.984 4.38133 17.1177 4.352 17.2515 4.352C17.4147 4.352 17.5444 4.38667 17.6407 4.456C17.7397 4.52533 17.8105 4.61733 17.8533 4.732C17.8961 4.84667 17.9175 4.97333 17.9175 5.112C17.9175 5.17867 17.9108 5.24533 17.8975 5.312C17.8841 5.37867 17.8694 5.43733 17.8533 5.488C17.8373 5.53867 17.8239 5.57333 17.8132 5.592H16.6015L16.6496 5.176H17.3799C17.3852 5.16267 17.3892 5.148 17.3919 5.132C17.3946 5.116 17.3959 5.09867 17.3959 5.08C17.3959 5.03467 17.3892 4.99467 17.3759 4.96C17.3625 4.92267 17.3384 4.89333 17.3036 4.872C17.2715 4.85067 17.2274 4.84 17.1712 4.84C17.1284 4.84 17.0803 4.85067 17.0268 4.872C16.976 4.89333 16.9265 4.93067 16.8783 4.984C16.8302 5.03467 16.7901 5.10533 16.758 5.196C16.7285 5.284 16.7138 5.39733 16.7138 5.536C16.7138 5.64533 16.7326 5.73067 16.77 5.792C16.8101 5.85333 16.8623 5.89733 16.9265 5.924C16.9907 5.948 17.0616 5.96 17.1391 5.96C17.1953 5.96 17.2568 5.94933 17.3237 5.928C17.3933 5.90667 17.4494 5.88 17.4922 5.848L17.7009 6.224C17.6179 6.29067 17.5163 6.34533 17.3959 6.388C17.2756 6.428 17.1445 6.448 17.0027 6.448Z" fill="#698950"/>
<path d="M18.0618 6.4L18.463 4.4H18.9846V4.656H19.0007C19.0943 4.576 19.1946 4.50533 19.3016 4.444C19.4113 4.38267 19.5303 4.352 19.6587 4.352C19.8245 4.352 19.9449 4.396 20.0198 4.484C20.0947 4.56933 20.1322 4.69867 20.1322 4.872C20.1322 4.91467 20.1295 4.96133 20.1241 5.012C20.1188 5.06267 20.1108 5.112 20.1001 5.16L19.8513 6.4H19.2093L19.442 5.24C19.4501 5.20267 19.4567 5.17067 19.4621 5.144C19.4701 5.11467 19.4741 5.088 19.4741 5.064C19.4741 5.008 19.4594 4.96667 19.43 4.94C19.4006 4.91067 19.3591 4.896 19.3056 4.896C19.2494 4.896 19.1946 4.91467 19.1411 4.952C19.0876 4.98667 19.0248 5.04267 18.9525 5.12L18.7038 6.4H18.0618Z" fill="#698950"/>
<path d="M20.9728 6.448C20.8979 6.448 20.815 6.43333 20.7241 6.404C20.6358 6.37733 20.5502 6.336 20.4673 6.28C20.387 6.22133 20.3175 6.14933 20.2586 6.064L20.5796 5.76C20.6572 5.84533 20.7334 5.904 20.8083 5.936C20.8859 5.968 20.9541 5.984 21.013 5.984C21.0531 5.984 21.0905 5.97867 21.1253 5.968C21.1601 5.95467 21.1868 5.93867 21.2056 5.92C21.227 5.89867 21.2377 5.87467 21.2377 5.848C21.2377 5.81333 21.2243 5.784 21.1975 5.76C21.1708 5.736 21.132 5.71067 21.0812 5.684C21.0304 5.65733 20.9702 5.624 20.9006 5.584C20.8016 5.528 20.712 5.45333 20.6318 5.36C20.5542 5.26667 20.5154 5.15467 20.5154 5.024C20.5154 4.896 20.5515 4.78133 20.6238 4.68C20.696 4.57867 20.7936 4.49867 20.9167 4.44C21.0397 4.38133 21.1761 4.352 21.3259 4.352C21.4677 4.352 21.5948 4.38267 21.7071 4.444C21.8194 4.50267 21.9171 4.57867 22 4.672L21.679 5C21.6282 4.952 21.572 4.91067 21.5105 4.876C21.449 4.84133 21.3874 4.824 21.3259 4.824C21.2617 4.824 21.2109 4.83867 21.1735 4.868C21.136 4.89467 21.1173 4.928 21.1173 4.968C21.1173 5.024 21.1521 5.068 21.2216 5.1C21.2912 5.132 21.3634 5.17067 21.4383 5.216C21.5025 5.25067 21.5653 5.29333 21.6269 5.344C21.6884 5.392 21.7392 5.452 21.7793 5.524C21.8194 5.59333 21.8395 5.67733 21.8395 5.776C21.8395 5.90933 21.8021 6.02667 21.7272 6.128C21.6549 6.22933 21.5533 6.308 21.4222 6.364C21.2912 6.42 21.1414 6.448 20.9728 6.448Z" fill="#698950"/>
</svg>
