<svg xmlns="http://www.w3.org/2000/svg" width="128" height="128" fill="none" viewBox="0 0 128 128" id="polygon"><circle cx="7" cy="7" r="7" stroke="#F0EDCD" stroke-width="6" transform="matrix(1 0 0 -1 57 113)"></circle><circle cx="7" cy="7" r="7" stroke="#F0EDCD" stroke-width="6" transform="matrix(1 0 0 -1 57 71)"></circle><circle cx="7" cy="7" r="7" stroke="#F0EDCD" stroke-width="6" transform="matrix(1 0 0 -1 92 50)"></circle><circle cx="7" cy="7" r="7" stroke="#F0EDCD" stroke-width="6" transform="matrix(1 0 0 -1 21 50)"></circle><circle cx="7" cy="7" r="7" stroke="#F0EDCD" stroke-width="6" transform="matrix(1 0 0 -1 92 91)"></circle><circle cx="7" cy="7" r="7" stroke="#F0EDCD" stroke-width="6" transform="matrix(1 0 0 -1 21 91)"></circle><circle cx="7" cy="7" r="7" stroke="#F0EDCD" stroke-width="6" transform="matrix(1 0 0 -1 57 29)"></circle><path stroke="#F0EDCD" stroke-linecap="round" stroke-width="6" d="M64 29V55.8333M64 99V71.5833"></path><path stroke="#F0EDCD" stroke-width="6" d="M68.5 25L73 27.6L82 32.8L91 38L95.5 40.6M59.5 25L55 27.6L46 32.8L37 38L32.5 40.6M100 48.4V53.6V64V74.4V79.6M68.5 103L73 100.4L82 95.2L91 90L95.5 87.4M59.5 103L55 100.4L46 95.2L37 90L32.5 87.4M28 48.4V53.6V64V74.4V79.6"></path><path stroke="#F0EDCD" stroke-linecap="round" stroke-width="6" d="M72 62L92 49M72 67L92 80M36 49L56 61M36 80L56 68"></path></svg>