<svg width="695" height="697" viewBox="0 0 695 697" fill="none" xmlns="http://www.w3.org/2000/svg">
<path d="M134.503 242.295C134.233 242.776 133.821 243.095 133.265 243.252C132.722 243.387 132.209 243.32 131.728 243.05L112.384 232.205C111.903 231.935 111.578 231.533 111.41 230.998C111.254 230.443 111.311 229.924 111.58 229.443L112.144 228.438C112.414 227.956 112.826 227.637 113.382 227.481C113.937 227.325 114.456 227.382 114.937 227.652L132.145 237.299C132.334 237.405 132.475 237.374 132.569 237.207L137.093 229.137C137.363 228.655 137.77 228.347 138.314 228.211C138.848 228.043 139.356 228.094 139.838 228.364L139.932 228.417C140.413 228.687 140.732 229.099 140.889 229.655C141.057 230.189 141.006 230.697 140.736 231.179L134.503 242.295Z" fill="#161515"/>
<path d="M156.5 206.719C156.153 207.147 155.692 207.391 155.118 207.451C154.544 207.511 154.043 207.367 153.614 207.019L136.396 193.044C135.967 192.696 135.723 192.235 135.663 191.661C135.604 191.087 135.748 190.586 136.096 190.157L143.809 180.654C144.157 180.225 144.618 179.981 145.192 179.921C145.766 179.862 146.267 180.006 146.696 180.354C147.124 180.701 147.368 181.162 147.428 181.736C147.469 182.295 147.316 182.789 146.968 183.217L141.341 190.149C141.205 190.317 141.221 190.469 141.389 190.605L145.889 194.258C146.057 194.394 146.209 194.378 146.345 194.21L151.585 187.753C151.933 187.325 152.37 187.092 152.895 187.054C153.435 186.998 153.91 187.136 154.32 187.469C154.73 187.802 154.963 188.238 155.019 188.778C155.072 189.285 154.924 189.752 154.576 190.181L149.336 196.638C149.199 196.805 149.215 196.957 149.383 197.093L154.973 201.631C155.141 201.767 155.293 201.751 155.429 201.583L161.055 194.651C161.403 194.223 161.864 193.979 162.438 193.919C162.993 193.844 163.485 193.981 163.914 194.329C164.342 194.677 164.587 195.137 164.646 195.711C164.706 196.285 164.562 196.786 164.214 197.215L156.5 206.719Z" fill="#161515"/>
<path d="M173.008 156.584L178.096 167.164C178.126 167.234 178.182 167.28 178.266 167.303C178.349 167.325 178.418 167.312 178.472 167.265L182.959 163.318C183.013 163.27 183.035 163.204 183.023 163.118C183.011 163.032 182.973 162.97 182.907 162.932L173.063 156.537C173.047 156.519 173.03 156.518 173.012 156.534C172.994 156.55 172.993 156.566 173.008 156.584ZM180.417 179.123C180.039 179.456 179.607 179.564 179.121 179.448C178.635 179.332 178.297 179.038 178.106 178.567L168.911 156.832C168.693 156.257 168.645 155.676 168.768 155.089C168.908 154.485 169.204 153.986 169.655 153.589L170.628 152.733C171.096 152.321 171.629 152.092 172.228 152.045C172.844 151.983 173.414 152.104 173.939 152.41L194.324 164.3C194.767 164.55 195.015 164.923 195.068 165.419C195.122 165.916 194.959 166.331 194.581 166.663L193.608 167.519C193.175 167.9 192.651 168.121 192.035 168.184C191.421 168.213 190.86 168.066 190.354 167.745L186.802 165.451C186.657 165.323 186.495 165.338 186.314 165.497L180.206 170.87C180.043 171.013 180.008 171.172 180.098 171.348L181.92 175.163C182.193 175.691 182.267 176.265 182.142 176.887C182.019 177.474 181.733 177.966 181.282 178.362L180.417 179.123Z" fill="#161515"/>
<path d="M213.46 152.329C212.992 152.621 212.477 152.701 211.915 152.571C211.373 152.428 210.956 152.122 210.664 151.653L198.936 132.832C198.644 132.364 198.554 131.855 198.664 131.305C198.794 130.743 199.094 130.316 199.562 130.024L209.645 123.742C210.113 123.45 210.629 123.369 211.191 123.499C211.753 123.63 212.18 123.929 212.472 124.398C212.764 124.866 212.844 125.382 212.714 125.944C212.571 126.485 212.265 126.902 211.796 127.194L204.525 131.725C204.362 131.827 204.337 131.969 204.451 132.153L207.783 137.5C207.885 137.663 208.017 137.693 208.18 137.592L214.932 133.384C215.38 133.105 215.869 133.027 216.398 133.15C216.914 133.252 217.318 133.537 217.61 134.006C217.902 134.474 217.987 134.973 217.864 135.502C217.728 136.011 217.437 136.405 216.988 136.684L210.236 140.891C210.073 140.993 210.042 141.125 210.144 141.288L214.942 148.988C215.234 149.456 215.314 149.972 215.184 150.534C215.053 151.096 214.754 151.523 214.285 151.815L213.46 152.329Z" fill="#161515"/>
<path d="M292.173 95.1883L295.2 112.859C295.228 113.024 295.341 113.115 295.539 113.13C296.316 113.118 297.036 113.056 297.698 112.942C300.466 112.468 302.372 111.375 303.418 109.661C304.46 107.925 304.685 105.329 304.093 101.876C303.562 98.7768 302.511 96.6193 300.939 95.4033C299.367 94.1872 297.221 93.8122 294.501 94.2782C293.838 94.3916 293.139 94.5723 292.402 94.8203C292.221 94.9 292.145 95.0227 292.173 95.1883ZM293.014 117.58C292.41 117.61 291.883 117.445 291.431 117.084C290.976 116.699 290.697 116.211 290.596 115.62L286.913 94.1171C286.811 93.5257 286.913 92.9847 287.219 92.494C287.52 91.9797 287.961 91.6365 288.54 91.4642C290.026 91.0393 291.703 90.6667 293.572 90.3466C297.782 89.6253 301.188 90.1742 303.788 91.9932C306.412 93.8082 308.087 96.8329 308.812 101.067C309.59 105.609 309.052 109.22 307.198 111.899C305.364 114.551 302.341 116.238 298.13 116.959C296.261 117.279 294.556 117.486 293.014 117.58Z" fill="#161515"/>
<path d="M339.332 111.893C338.781 111.899 338.298 111.701 337.885 111.298C337.472 110.895 337.263 110.417 337.256 109.865L336.99 87.691C336.984 87.1391 337.182 86.6567 337.585 86.2438C337.988 85.8309 338.465 85.6212 339.017 85.6146L340.457 85.5973C341.009 85.5907 341.492 85.7889 341.905 86.192C342.317 86.5951 342.527 87.0726 342.534 87.6246L342.8 109.799C342.806 110.351 342.608 110.833 342.205 111.246C341.802 111.659 341.324 111.869 340.772 111.875L339.332 111.893Z" fill="#161515"/>
<path d="M373.389 102.23C370.652 100.916 368.727 99.4991 367.613 97.9791C366.523 96.4622 366.1 94.7394 366.345 92.8108C366.619 90.6441 367.562 89.0218 369.174 87.9438C370.787 86.8658 372.902 86.4926 375.521 86.8243C377.736 87.1047 379.633 87.5989 381.212 88.307C381.762 88.546 382.171 88.9485 382.438 89.5146C382.732 90.0598 382.84 90.642 382.761 91.261L382.721 91.5824C382.663 92.0348 382.416 92.3663 381.978 92.577C381.543 92.7638 381.122 92.7468 380.714 92.5258C379.016 91.6092 377.238 91.0333 375.381 90.7981C374.19 90.6474 373.251 90.8066 372.563 91.2758C371.874 91.7451 371.468 92.4678 371.345 93.444C371.127 95.1583 372.091 96.5262 374.236 97.5477C377.321 98.9786 379.399 100.427 380.471 101.894C381.567 103.363 381.984 105.133 381.722 107.205C381.089 112.205 377.689 114.314 371.522 113.533C369.593 113.289 367.881 112.77 366.385 111.976C365.841 111.689 365.435 111.263 365.168 110.697C364.925 110.134 364.844 109.531 364.925 108.888L364.98 108.459C365.037 108.007 365.268 107.71 365.673 107.567C366.081 107.401 366.476 107.439 366.856 107.681C368.328 108.666 369.933 109.268 371.671 109.488C374.695 109.871 376.352 108.92 376.641 106.634C376.759 105.705 376.57 104.907 376.074 104.24C375.581 103.548 374.686 102.879 373.389 102.23Z" fill="#161515"/>
<path d="M403.588 118.743C403.059 118.586 402.656 118.255 402.38 117.748C402.104 117.241 402.044 116.723 402.201 116.194L408.476 94.9243C408.632 94.3949 408.964 93.9922 409.471 93.7163C409.978 93.4405 410.496 93.3807 411.025 93.5369L422.765 97.0007C423.294 97.1569 423.697 97.4884 423.973 97.9952C424.249 98.502 424.308 99.0201 424.152 99.5496C423.996 100.079 423.664 100.482 423.158 100.757C422.658 101.01 422.143 101.059 421.614 100.902L413.05 98.3759C412.843 98.3147 412.709 98.3878 412.648 98.5949L411.008 104.154C410.947 104.361 411.02 104.495 411.227 104.556L419.203 106.91C419.732 107.066 420.115 107.379 420.352 107.849C420.612 108.326 420.667 108.818 420.517 109.324C420.368 109.831 420.055 110.214 419.578 110.474C419.131 110.717 418.642 110.761 418.113 110.604L410.137 108.251C409.93 108.19 409.795 108.263 409.734 108.47L407.697 115.376C407.636 115.583 407.709 115.717 407.916 115.778L416.479 118.305C417.008 118.461 417.411 118.792 417.687 119.299C417.969 119.783 418.033 120.29 417.876 120.819C417.72 121.348 417.389 121.751 416.882 122.027C416.375 122.303 415.857 122.363 415.328 122.206L403.588 118.743Z" fill="#161515"/>
<path d="M456.214 114.693L448.405 123.459C448.352 123.513 448.331 123.583 448.343 123.669C448.355 123.754 448.393 123.813 448.457 123.845L453.827 126.468C453.892 126.5 453.961 126.494 454.036 126.45C454.111 126.406 454.153 126.347 454.163 126.272L456.279 114.724C456.289 114.703 456.284 114.687 456.262 114.676C456.24 114.666 456.224 114.671 456.214 114.693ZM438.26 130.202C437.807 129.981 437.541 129.623 437.461 129.13C437.381 128.637 437.522 128.212 437.884 127.855L454.409 111.006C454.856 110.583 455.374 110.316 455.963 110.203C456.574 110.101 457.149 110.181 457.688 110.445L458.853 111.014C459.413 111.287 459.83 111.692 460.104 112.226C460.398 112.77 460.506 113.344 460.425 113.945L457.292 137.336C457.232 137.841 456.983 138.214 456.546 138.454C456.108 138.694 455.662 138.703 455.209 138.482L454.045 137.913C453.527 137.66 453.121 137.262 452.826 136.717C452.564 136.161 452.483 135.588 452.585 134.996L453.336 130.836C453.398 130.653 453.322 130.508 453.106 130.403L445.796 126.832C445.602 126.737 445.441 126.765 445.314 126.917L442.493 130.066C442.111 130.52 441.609 130.81 440.988 130.933C440.398 131.046 439.834 130.971 439.295 130.707L438.26 130.202Z" fill="#161515"/>
<path d="M486.417 144.41C484.627 141.958 483.602 139.799 483.339 137.933C483.096 136.081 483.538 134.363 484.666 132.779C485.933 131 487.531 130.017 489.461 129.829C491.392 129.642 493.432 130.314 495.583 131.845C497.401 133.14 498.839 134.472 499.896 135.843C500.267 136.314 500.437 136.862 500.404 137.487C500.405 138.107 500.225 138.67 499.863 139.179L499.675 139.443C499.411 139.814 499.036 139.989 498.55 139.968C498.079 139.926 497.716 139.712 497.461 139.325C496.398 137.714 495.105 136.366 493.58 135.28C492.602 134.584 491.699 134.28 490.87 134.368C490.042 134.456 489.342 134.9 488.772 135.702C487.77 137.11 487.972 138.771 489.378 140.685C491.419 143.405 492.565 145.664 492.816 147.463C493.087 149.277 492.617 151.034 491.406 152.735C488.483 156.84 484.49 157.091 479.426 153.486C477.842 152.358 476.579 151.091 475.637 149.684C475.293 149.174 475.137 148.606 475.169 147.981C475.221 147.37 475.435 146.8 475.811 146.273L476.062 145.921C476.326 145.549 476.67 145.397 477.095 145.463C477.533 145.51 477.862 145.729 478.083 146.123C478.914 147.686 480.044 148.976 481.471 149.992C483.954 151.76 485.863 151.705 487.2 149.828C487.743 149.066 487.953 148.273 487.832 147.45C487.725 146.608 487.253 145.595 486.417 144.41Z" fill="#161515"/>
<path d="M505.212 173.243C504.82 172.854 504.622 172.372 504.618 171.795C504.615 171.218 504.807 170.733 505.196 170.341L520.785 154.569C521.173 154.177 521.656 153.979 522.233 153.976C522.81 153.972 523.295 154.165 523.687 154.553L532.392 163.157C532.785 163.545 532.983 164.028 532.986 164.605C532.989 165.182 532.797 165.667 532.409 166.059C532.021 166.452 531.538 166.65 530.961 166.653C530.401 166.639 529.925 166.439 529.532 166.051L523.183 159.774C523.029 159.622 522.877 159.623 522.725 159.777L518.65 163.899C518.498 164.052 518.499 164.205 518.653 164.357L524.567 170.203C524.96 170.591 525.149 171.048 525.135 171.575C525.138 172.118 524.954 172.577 524.583 172.952C524.212 173.328 523.755 173.517 523.211 173.52C522.702 173.523 522.252 173.331 521.859 172.943L515.945 167.096C515.791 166.945 515.638 166.945 515.487 167.099L510.425 172.22C510.273 172.373 510.274 172.526 510.428 172.678L516.777 178.954C517.17 179.342 517.368 179.825 517.371 180.402C517.391 180.962 517.207 181.438 516.819 181.831C516.431 182.223 515.949 182.421 515.372 182.424C514.795 182.428 514.31 182.235 513.917 181.847L505.212 173.243Z" fill="#161515"/>
<path d="M545.873 222.014C545.587 221.542 545.512 221.026 545.65 220.466C545.787 219.905 546.092 219.482 546.564 219.196L548.288 218.151C548.76 217.865 549.277 217.791 549.837 217.928C550.397 218.066 550.821 218.37 551.107 218.842L551.965 220.259C552.251 220.731 552.325 221.247 552.188 221.807C552.05 222.368 551.746 222.791 551.274 223.077L549.55 224.122C549.077 224.408 548.561 224.482 548.001 224.345C547.44 224.207 547.017 223.903 546.731 223.43L545.873 222.014Z" fill="#161515"/>
<path d="M568.944 269.753C568.769 269.229 568.811 268.709 569.069 268.193C569.328 267.677 569.719 267.332 570.242 267.158L591.282 260.151C591.806 259.976 592.326 260.018 592.842 260.276C593.358 260.535 593.703 260.925 593.877 261.449L594.332 262.815C594.507 263.339 594.465 263.859 594.207 264.375C593.949 264.891 593.558 265.236 593.034 265.411L571.994 272.418C571.47 272.592 570.95 272.55 570.434 272.292C569.918 272.034 569.573 271.643 569.399 271.119L568.944 269.753Z" fill="#161515"/>
<path d="M599.069 295.347L581.411 298.445C581.245 298.474 581.155 298.587 581.141 298.785C581.156 299.562 581.221 300.281 581.337 300.943C581.823 303.709 582.924 305.611 584.641 306.65C586.382 307.685 588.978 307.9 592.43 307.294C595.526 306.751 597.679 305.691 598.889 304.114C600.099 302.537 600.465 300.39 599.989 297.671C599.872 297.009 599.689 296.311 599.438 295.575C599.358 295.394 599.235 295.318 599.069 295.347ZM576.681 296.278C576.648 295.674 576.812 295.146 577.171 294.693C577.553 294.236 578.04 293.956 578.631 293.852L600.119 290.082C600.71 289.979 601.252 290.079 601.743 290.382C602.259 290.682 602.604 291.121 602.779 291.699C603.209 293.183 603.589 294.859 603.916 296.726C604.654 300.934 604.119 304.342 602.311 306.95C600.506 309.581 597.488 311.268 593.257 312.01C588.718 312.806 585.105 312.283 582.418 310.439C579.759 308.615 578.061 305.599 577.322 301.392C576.995 299.524 576.781 297.819 576.681 296.278Z" fill="#161515"/>
<path d="M582.24 337.694C582.238 337.142 582.441 336.661 582.848 336.252C583.254 335.843 583.734 335.638 584.286 335.636L606.462 335.573C607.014 335.571 607.494 335.774 607.904 336.181C608.313 336.587 608.518 337.067 608.52 337.619L608.555 349.859C608.556 350.411 608.354 350.891 607.947 351.301C607.54 351.71 607.061 351.915 606.509 351.917C605.957 351.918 605.476 351.716 605.067 351.309C604.682 350.902 604.488 350.422 604.487 349.87L604.461 340.942C604.461 340.726 604.352 340.619 604.136 340.619L598.34 340.636C598.124 340.637 598.017 340.745 598.017 340.961L598.041 349.277C598.043 349.829 597.852 350.285 597.469 350.646C597.086 351.032 596.631 351.225 596.103 351.226C595.575 351.228 595.118 351.037 594.733 350.654C594.372 350.295 594.191 349.84 594.189 349.288L594.165 340.972C594.165 340.756 594.056 340.648 593.84 340.649L586.64 340.669C586.424 340.67 586.317 340.778 586.317 340.994L586.343 349.922C586.344 350.474 586.142 350.955 585.735 351.364C585.352 351.773 584.885 351.978 584.333 351.98C583.781 351.982 583.3 351.779 582.891 351.372C582.482 350.965 582.276 350.486 582.275 349.934L582.24 337.694Z" fill="#161515"/>
<path d="M580.815 376.52C580.907 375.975 581.188 375.536 581.659 375.202C582.125 374.892 582.631 374.783 583.175 374.875L605.039 378.582C605.583 378.674 606.024 378.944 606.362 379.391C606.696 379.861 606.817 380.368 606.725 380.913L606.593 381.693C606.364 383.042 605.604 383.936 604.313 384.374L586.996 390.457C586.972 390.453 586.959 390.463 586.955 390.487C586.951 390.51 586.96 390.524 586.984 390.528L602.566 393.17C603.11 393.262 603.549 393.543 603.883 394.014C604.217 394.484 604.338 394.992 604.246 395.536L604.113 396.317C604.021 396.861 603.742 397.288 603.275 397.599C602.805 397.933 602.298 398.054 601.753 397.961L579.889 394.255C579.345 394.162 578.906 393.881 578.572 393.41C578.234 392.964 578.111 392.468 578.203 391.924L578.336 391.143C578.564 389.794 579.324 388.901 580.616 388.462L597.932 382.379C597.956 382.383 597.97 382.374 597.974 382.35C597.978 382.326 597.968 382.312 597.944 382.308L582.363 379.667C581.818 379.574 581.379 379.293 581.045 378.823C580.711 378.352 580.59 377.845 580.682 377.301L580.815 376.52Z" fill="#161515"/>
<path d="M593.22 423.795C593.401 423.274 593.741 422.884 594.238 422.625C594.757 422.374 595.278 422.34 595.799 422.521L595.901 422.557C596.422 422.739 596.808 423.089 597.059 423.609C597.31 424.129 597.345 424.649 597.163 425.17L592.114 439.651C591.932 440.173 591.582 440.559 591.062 440.81C590.543 441.06 590.022 441.095 589.501 440.913L589.399 440.878C588.878 440.696 588.492 440.345 588.241 439.826C588.013 439.314 587.989 438.798 588.171 438.277L589.759 433.721C589.822 433.54 589.752 433.414 589.548 433.343L570.92 426.848C570.398 426.667 570.012 426.316 569.761 425.796C569.51 425.277 569.476 424.756 569.657 424.235L569.989 423.283C570.171 422.762 570.522 422.376 571.041 422.125C571.561 421.874 572.081 421.839 572.602 422.021L591.231 428.516C591.435 428.587 591.568 428.532 591.632 428.35L593.22 423.795Z" fill="#161515"/>
<path d="M558.05 452.328C558.301 451.837 558.702 451.503 559.251 451.326C559.8 451.149 560.32 451.186 560.812 451.438L580.549 461.548C581.04 461.8 581.374 462.201 581.551 462.75C581.728 463.299 581.691 463.819 581.439 464.31L580.783 465.592C580.531 466.083 580.131 466.417 579.582 466.595C579.033 466.772 578.512 466.734 578.021 466.483L558.284 456.372C557.793 456.12 557.459 455.72 557.281 455.171C557.104 454.622 557.142 454.101 557.393 453.61L558.05 452.328Z" fill="#161515"/>
<path d="M544.643 476.291C544.96 475.839 545.403 475.563 545.971 475.463C546.526 475.383 547.029 475.501 547.481 475.818L565.64 488.547C566.092 488.863 566.375 489.296 566.489 489.845C566.588 490.413 566.48 490.923 566.163 491.375L559.344 501.103C559.027 501.555 558.585 501.831 558.016 501.931C557.448 502.031 556.938 501.923 556.486 501.606C556.034 501.289 555.758 500.846 555.658 500.278C555.578 499.724 555.696 499.22 556.013 498.768L560.931 491.752C561.041 491.595 561.008 491.454 560.831 491.33L555.672 487.714C555.515 487.604 555.381 487.628 555.271 487.785L550.704 494.3C550.401 494.732 549.982 494.995 549.447 495.089C548.932 495.197 548.449 495.093 547.997 494.776C547.545 494.459 547.272 494.033 547.178 493.498C547.103 492.977 547.217 492.5 547.521 492.068L552.087 485.553C552.197 485.396 552.174 485.262 552.017 485.152L544.588 479.945C544.136 479.628 543.86 479.185 543.76 478.617C543.66 478.049 543.769 477.539 544.086 477.087L544.643 476.291Z" fill="#161515"/>
<path d="M521.627 506.143C522.003 505.739 522.479 505.527 523.056 505.506C523.633 505.485 524.123 505.662 524.527 506.038L540.763 521.144C541.167 521.52 541.38 521.996 541.401 522.573C541.422 523.149 541.244 523.64 540.868 524.044L539.887 525.098C539.511 525.502 539.035 525.715 538.458 525.735C537.882 525.756 537.391 525.579 536.987 525.203L520.751 510.097C520.347 509.722 520.134 509.245 520.114 508.669C520.093 508.092 520.27 507.602 520.646 507.197L521.627 506.143Z" fill="#161515"/>
<path d="M495.216 530.77C498.156 528.375 501.227 527.375 504.428 527.771C507.625 528.2 510.588 530.089 513.316 533.439C516.014 536.751 517.277 539.994 517.106 543.166C516.932 546.373 515.347 549.196 512.351 551.636C510.974 552.758 509.752 553.614 508.685 554.204C508.178 554.493 507.624 554.573 507.023 554.443C506.422 554.314 505.932 554.016 505.553 553.551L505.371 553.328C505.053 552.937 504.971 552.494 505.124 551.997C505.258 551.517 505.549 551.171 505.997 550.961C507.106 550.46 508.228 549.748 509.363 548.823C511.206 547.322 512.142 545.508 512.172 543.378C512.183 541.264 511.234 539.035 509.324 536.69C507.43 534.364 505.42 532.998 503.295 532.594C501.166 532.222 499.19 532.779 497.367 534.265C496.138 535.265 495.178 536.233 494.485 537.169C494.189 537.565 493.792 537.78 493.293 537.815C492.776 537.864 492.359 537.693 492.041 537.303L491.881 537.107C491.503 536.642 491.31 536.102 491.305 535.487C491.296 534.906 491.494 534.389 491.899 533.936C492.808 532.886 493.914 531.831 495.216 530.77Z" fill="#161515"/>
<path d="M477.078 570.391L474.219 559.005C474.204 558.931 474.158 558.874 474.081 558.836C474.003 558.797 473.933 558.795 473.871 558.831L468.682 561.797C468.62 561.832 468.586 561.893 468.58 561.98C468.574 562.066 468.599 562.135 468.656 562.185L477.016 570.427C477.028 570.448 477.044 570.452 477.065 570.44C477.086 570.428 477.09 570.412 477.078 570.391ZM474.347 546.824C474.784 546.574 475.229 546.554 475.682 546.766C476.134 546.977 476.407 547.333 476.499 547.833L481.142 570.971C481.24 571.578 481.17 572.157 480.932 572.708C480.673 573.271 480.283 573.701 479.762 573.999L478.637 574.642C478.095 574.952 477.527 575.069 476.931 574.995C476.315 574.932 475.781 574.699 475.328 574.294L457.747 558.552C457.363 558.219 457.194 557.803 457.242 557.306C457.289 556.809 457.532 556.435 457.97 556.185L459.095 555.542C459.595 555.256 460.153 555.145 460.769 555.207C461.376 555.302 461.896 555.558 462.328 555.975L465.347 558.935C465.463 559.09 465.625 559.108 465.833 558.988L472.897 554.951C473.084 554.844 473.151 554.695 473.098 554.504L472.079 550.401C471.918 549.829 471.961 549.252 472.208 548.668C472.446 548.118 472.826 547.693 473.347 547.396L474.347 546.824Z" fill="#161515"/>
<path d="M445.09 586.861C445.607 586.67 446.124 586.683 446.64 586.901C447.164 587.142 447.523 587.521 447.714 588.038L447.752 588.14C447.944 588.657 447.92 589.178 447.679 589.703C447.438 590.227 447.059 590.585 446.541 590.777L432.162 596.108C431.644 596.3 431.123 596.276 430.599 596.035C430.075 595.794 429.716 595.415 429.524 594.898L429.487 594.796C429.295 594.279 429.319 593.758 429.56 593.233C429.809 592.732 430.193 592.385 430.71 592.193L435.233 590.516C435.413 590.449 435.466 590.314 435.391 590.112L428.533 571.614C428.341 571.097 428.365 570.576 428.606 570.051C428.847 569.527 429.226 569.169 429.743 568.977L430.688 568.626C431.206 568.435 431.727 568.459 432.251 568.7C432.776 568.94 433.134 569.32 433.326 569.837L440.184 588.335C440.259 588.537 440.386 588.605 440.567 588.538L445.09 586.861Z" fill="#161515"/>
<path d="M400.692 577.921C401.231 577.802 401.744 577.898 402.23 578.209C402.717 578.519 403.019 578.944 403.138 579.483L407.915 601.139C408.033 601.678 407.938 602.19 407.627 602.677C407.317 603.163 406.892 603.465 406.353 603.584L404.947 603.894C404.407 604.013 403.895 603.918 403.408 603.607C402.922 603.296 402.62 602.872 402.501 602.333L397.724 580.677C397.605 580.138 397.701 579.625 398.012 579.139C398.322 578.653 398.747 578.35 399.286 578.231L400.692 577.921Z" fill="#161515"/>
<path d="M359.392 597.126C359.845 603.349 362.345 606.296 366.893 605.965C371.441 605.635 373.489 602.358 373.036 596.134C372.584 589.91 370.084 586.964 365.536 587.295C360.988 587.625 358.94 590.902 359.392 597.126ZM356.769 587.354C358.727 584.83 361.549 583.433 365.236 583.165C368.922 582.898 371.928 583.87 374.255 586.083C376.558 588.298 377.863 591.524 378.171 595.761C378.479 599.998 377.654 603.378 375.696 605.903C373.714 608.429 370.879 609.826 367.193 610.094C363.507 610.362 360.512 609.389 358.21 607.174C355.883 604.961 354.566 601.736 354.258 597.499C353.95 593.262 354.787 589.881 356.769 587.354Z" fill="#161515"/>
<path d="M333.223 584.217C333.772 584.273 334.229 584.524 334.594 584.972C334.934 585.416 335.077 585.913 335.021 586.463L332.773 608.524C332.717 609.074 332.477 609.532 332.054 609.899C331.607 610.263 331.109 610.417 330.559 610.361L329.772 610.281C328.411 610.143 327.469 609.444 326.946 608.184L319.727 591.309C319.729 591.286 319.718 591.272 319.695 591.27C319.671 591.268 319.657 591.278 319.655 591.302L318.053 607.025C317.997 607.574 317.746 608.031 317.298 608.395C316.851 608.76 316.353 608.914 315.804 608.858L315.016 608.778C314.467 608.722 314.022 608.472 313.681 608.027C313.317 607.58 313.162 607.081 313.218 606.532L315.466 584.47C315.522 583.921 315.773 583.464 316.221 583.1C316.644 582.733 317.13 582.577 317.679 582.633L318.467 582.714C319.828 582.852 320.77 583.551 321.293 584.811L328.512 601.685C328.51 601.709 328.521 601.722 328.544 601.725C328.568 601.727 328.581 601.717 328.584 601.693L330.186 585.97C330.242 585.421 330.493 584.964 330.94 584.599C331.388 584.235 331.886 584.081 332.435 584.137L333.223 584.217Z" fill="#161515"/>
<path d="M268.008 571.082C268.526 571.273 268.905 571.631 269.146 572.155C269.387 572.68 269.412 573.201 269.221 573.718L268.521 575.609C268.329 576.127 267.971 576.506 267.447 576.747C266.923 576.988 266.402 577.013 265.884 576.821L264.331 576.246C263.813 576.055 263.434 575.697 263.193 575.173C262.952 574.649 262.927 574.128 263.119 573.61L263.819 571.719C264.01 571.201 264.368 570.822 264.892 570.581C265.417 570.34 265.938 570.315 266.455 570.507L268.008 571.082Z" fill="#161515"/>
<path d="M201.974 562.234L211.076 554.82C211.137 554.775 211.168 554.709 211.171 554.622C211.173 554.536 211.145 554.472 211.086 554.43L206.201 550.988C206.142 550.946 206.072 550.941 205.992 550.972C205.911 551.003 205.86 551.055 205.838 551.128L201.915 562.193C201.901 562.212 201.904 562.229 201.924 562.243C201.943 562.257 201.96 562.254 201.974 562.234ZM222.163 549.774C222.575 550.064 222.781 550.459 222.782 550.958C222.782 551.458 222.575 551.855 222.162 552.151L203.171 566.161C202.662 566.507 202.108 566.689 201.508 566.707C200.889 566.711 200.334 566.54 199.844 566.194L198.784 565.448C198.274 565.088 197.927 564.623 197.742 564.052C197.537 563.468 197.522 562.885 197.697 562.303L204.506 539.707C204.645 539.218 204.95 538.89 205.42 538.722C205.891 538.555 206.332 538.616 206.744 538.906L207.803 539.653C208.274 539.985 208.612 540.443 208.817 541.028C208.988 541.618 208.976 542.197 208.781 542.765L207.38 546.753C207.289 546.924 207.341 547.079 207.537 547.217L214.188 551.904C214.364 552.028 214.527 552.026 214.677 551.897L217.962 549.235C218.412 548.847 218.953 548.642 219.586 548.618C220.186 548.6 220.731 548.764 221.222 549.11L222.163 549.774Z" fill="#161515"/>
<path d="M184.732 521.02C185.117 521.416 185.306 521.902 185.299 522.479C185.275 523.038 185.066 523.511 184.671 523.896L168.795 539.38C168.4 539.766 167.922 539.963 167.362 539.973C166.785 539.966 166.304 539.765 165.919 539.37L165.366 538.803C164.41 537.824 164.136 536.683 164.543 535.381L169.828 517.805C169.845 517.788 169.846 517.771 169.829 517.754C169.812 517.737 169.795 517.737 169.778 517.753L158.464 528.788C158.069 529.174 157.583 529.363 157.006 529.356C156.429 529.348 155.948 529.147 155.563 528.752L155.01 528.185C154.624 527.79 154.443 527.312 154.467 526.753C154.475 526.176 154.676 525.694 155.071 525.309L170.946 509.825C171.341 509.44 171.827 509.251 172.404 509.258C172.965 509.248 173.437 509.44 173.823 509.836L174.376 510.403C175.331 511.382 175.605 512.522 175.199 513.824L169.913 531.401C169.896 531.417 169.896 531.434 169.913 531.451C169.929 531.469 169.946 531.469 169.963 531.452L181.277 520.417C181.672 520.032 182.158 519.843 182.735 519.85C183.312 519.857 183.793 520.058 184.179 520.453L184.732 521.02Z" fill="#161515"/>
<path d="M134.824 496.364L145.947 492.608C146.02 492.588 146.073 492.537 146.105 492.457C146.138 492.377 146.134 492.307 146.093 492.247L142.724 487.311C142.684 487.252 142.62 487.223 142.534 487.223C142.447 487.224 142.381 487.255 142.335 487.315L134.784 496.304C134.764 496.318 134.761 496.334 134.774 496.354C134.788 496.374 134.805 496.377 134.824 496.364ZM158.1 491.768C158.384 492.184 158.439 492.626 158.264 493.094C158.089 493.562 157.757 493.862 157.265 493.994L134.569 500.46C133.972 500.606 133.389 500.583 132.821 500.389C132.24 500.176 131.78 499.821 131.442 499.326L130.711 498.255C130.359 497.74 130.197 497.183 130.224 496.583C130.237 495.964 130.427 495.413 130.795 494.929L145.09 476.152C145.392 475.743 145.792 475.542 146.292 475.55C146.791 475.558 147.183 475.77 147.467 476.186L148.197 477.257C148.522 477.733 148.678 478.28 148.664 478.899C148.618 479.512 148.404 480.05 148.023 480.514L145.312 483.758C145.167 483.887 145.162 484.05 145.297 484.248L149.884 490.968C150.005 491.147 150.159 491.202 150.345 491.133L154.354 489.791C154.911 489.586 155.49 489.583 156.091 489.783C156.659 489.976 157.112 490.321 157.451 490.816L158.1 491.768Z" fill="#161515"/>
<path d="M135.789 455.888C136.032 456.384 136.059 456.905 135.871 457.451C135.673 457.975 135.326 458.358 134.83 458.6L114.904 468.332C114.408 468.574 113.892 468.612 113.357 468.446C112.811 468.258 112.417 467.917 112.175 467.421L111.67 466.386C111.427 465.89 111.4 465.369 111.588 464.823C111.775 464.277 112.117 463.883 112.613 463.641L130.34 454.984C130.534 454.889 130.589 454.755 130.505 454.583L126.444 446.269C126.202 445.773 126.18 445.263 126.378 444.739C126.544 444.204 126.875 443.815 127.371 443.573L127.468 443.526C127.964 443.283 128.485 443.256 129.031 443.444C129.566 443.61 129.955 443.941 130.197 444.437L135.789 455.888Z" fill="#161515"/>
<path d="M112.863 429.534L102.084 441.007C101.785 441.33 101.405 441.441 100.943 441.338C100.481 441.236 100.18 440.967 100.039 440.534L99.507 438.89C99.3148 438.296 99.2972 437.696 99.4543 437.09C99.6113 436.485 99.9118 435.971 100.356 435.55L108.333 428.048C108.356 428.041 108.364 428.026 108.356 428.003C108.349 427.98 108.334 427.972 108.311 427.98L97.4508 426.576C96.8444 426.495 96.3 426.255 95.8177 425.856C95.3354 425.457 94.9982 424.961 94.806 424.367L94.3182 422.86C94.1777 422.427 94.2646 422.033 94.5789 421.679C94.8932 421.325 95.2662 421.191 95.6981 421.279L111.155 424.259C111.375 424.314 111.576 424.312 111.759 424.253L119.431 421.769C119.956 421.599 120.475 421.646 120.989 421.908C121.496 422.148 121.834 422.53 122.004 423.055L122.359 424.151C122.529 424.677 122.482 425.196 122.22 425.71C121.95 426.201 121.552 426.531 121.027 426.701L113.355 429.185C113.173 429.244 113.008 429.36 112.863 429.534Z" fill="#161515"/>
<path d="M102.134 389.243C101.622 392.236 100.787 394.476 99.6316 395.964C98.4722 397.429 96.9317 398.308 95.0101 398.603C92.8513 398.934 91.0324 398.472 89.5532 397.218C88.0741 395.963 87.1345 394.031 86.7344 391.422C86.3962 389.216 86.3507 387.256 86.598 385.543C86.6768 384.948 86.9516 384.444 87.4226 384.032C87.8663 383.6 88.3965 383.337 89.0133 383.242L89.3335 383.193C89.7843 383.124 90.171 383.271 90.4938 383.634C90.7928 384.001 90.8921 384.411 90.7915 384.863C90.3763 386.748 90.3105 388.616 90.5942 390.466C90.776 391.652 91.187 392.512 91.8272 393.045C92.4674 393.578 93.2738 393.77 94.2464 393.621C95.9545 393.359 97.0053 392.057 97.3988 389.714C97.9279 386.355 98.7503 383.959 99.866 382.525C100.978 381.068 102.566 380.181 104.63 379.865C109.612 379.101 112.573 381.791 113.515 387.936C113.81 389.857 113.781 391.646 113.428 393.303C113.301 393.905 113.003 394.412 112.532 394.824C112.057 395.213 111.5 395.456 110.859 395.554L110.432 395.62C109.981 395.689 109.632 395.548 109.384 395.197C109.112 394.851 109.041 394.461 109.168 394.029C109.711 392.343 109.85 390.634 109.585 388.902C109.123 385.89 107.753 384.558 105.476 384.907C104.55 385.049 103.835 385.45 103.329 386.11C102.8 386.774 102.401 387.818 102.134 389.243Z" fill="#161515"/>
<path d="M109.877 355.277C109.885 355.829 109.688 356.312 109.286 356.725C108.884 357.139 108.407 357.35 107.855 357.358L85.6809 357.672C85.1289 357.68 84.6461 357.482 84.2324 357.08C83.8186 356.678 83.6079 356.201 83.6 355.649L83.5796 354.209C83.5718 353.657 83.769 353.174 84.1712 352.761C84.5734 352.347 85.0504 352.136 85.6024 352.128L107.776 351.814C108.328 351.807 108.811 352.004 109.225 352.406C109.638 352.808 109.849 353.285 109.857 353.837L109.877 355.277Z" fill="#161515"/>
<path d="M100.141 321.241C98.8328 323.981 97.4198 325.909 95.9023 327.026C94.3877 328.12 92.6658 328.546 90.7367 328.306C88.5694 328.037 86.945 327.097 85.8635 325.487C84.782 323.877 84.4043 321.762 84.7303 319.142C85.0059 316.928 85.496 315.03 86.2006 313.448C86.4385 312.898 86.8401 312.488 87.4056 312.22C87.9502 311.925 88.5321 311.816 89.1513 311.893L89.4728 311.933C89.9253 311.989 90.2574 312.236 90.469 312.674C90.6568 313.108 90.6406 313.529 90.4206 313.937C89.5076 315.638 88.9356 317.417 88.7044 319.274C88.5562 320.465 88.7175 321.404 89.1882 322.091C89.659 322.779 90.3826 323.183 91.359 323.305C93.0738 323.518 94.4396 322.551 95.4565 320.405C96.8807 317.317 98.3248 315.235 99.7888 314.16C101.256 313.06 103.025 312.64 105.097 312.898C110.099 313.52 112.216 316.915 111.448 323.084C111.208 325.013 110.693 326.726 109.902 328.224C109.616 328.769 109.191 329.176 108.625 329.444C108.063 329.688 107.46 329.77 106.817 329.69L106.388 329.637C105.936 329.581 105.638 329.35 105.495 328.945C105.328 328.538 105.365 328.143 105.606 327.762C106.587 326.288 107.186 324.682 107.402 322.943C107.779 319.918 106.824 318.264 104.537 317.979C103.609 317.864 102.811 318.055 102.144 318.552C101.454 319.047 100.786 319.943 100.141 321.241Z" fill="#161515"/>
</svg>
